<?xml version="1.0" encoding="UTF-8"?>
<svg xmlns="http://www.w3.org/2000/svg" viewBox="0 0 56 56" width="56" height="56">
  <defs>
    <linearGradient id="markGrad" x1="0" y1="0" x2="1" y2="1">
      <stop offset="0%" stop-color="#FF5C36"/>
      <stop offset="100%" stop-color="#FFB347"/>
    </linearGradient>
    <style>
      .mark { fill: none; stroke: url(#markGrad); stroke-width: 2.2; stroke-linecap: round; stroke-linejoin: round; }
    </style>
  </defs>
  <g transform="translate(14, 14) scale(0.7)">
    <path class="mark" d="
      M 8.09,12.72 C 5.22,11.17 3.12,8.38 2.36,5.00 C 1.60,1.62 2.30,-1.78 4.15,-4.17
      C 6.00,-6.56 8.76,-7.45 11.66,-6.60 C 14.56,-5.75 17.10,-3.17 18.62,-0.03
      C 20.14,3.11 20.42,6.65 19.36,9.82 C 18.30,12.99 16.00,15.42 13.12,16.55
      C 10.24,17.68 7.04,17.41 4.34,15.83 C 1.64,14.25 -0.54,11.51 -1.44,8.33
      C-2.34,5.15 -1.90,1.72 -0.24,-0.77 C 1.42,-3.26 3.82,-5.08 6.66,-5.87
      C 9.50,-6.66 12.51,-6.29 15.12,-4.86 C 17.73,-3.43 19.72,-1.01 20.65,1.77
      C 21.58,4.55 21.36,7.50 20.05,10.11 C 18.74,12.72 16.44,14.72 13.70,15.77
      C 10.96,16.82 7.99,16.76 5.33,15.61 C 2.67,14.46 0.51,12.30 -0.68,9.60
      C-1.87,6.90 -1.81,3.89 -0.52,1.24 C 0.77,-1.41 2.91,-3.50 5.63,-4.70
      C 8.35,-5.90 11.35,-6.10 14.13,-5.25 C 16.91,-4.40 19.15,-2.55 20.49,0.04
      C 21.83,2.63 22.17,5.60 21.37,8.38 C 20.57,11.16 18.68,13.41 16.10,14.72
      C 13.52,16.03 10.48,16.27 7.76,15.35 C 5.04,14.43 2.32,11.93 0.98,9.37 Z
    "/>
  </g>
</svg>
